<svg width="180" height="180" viewBox="0 0 180 180" fill="none" xmlns="http://www.w3.org/2000/svg">
<rect width="180" height="180" fill="#F5F5F5"/>
<g id="Frame 288">
<g id="SEND">
<g clip-path="url(#clip0_0_1)">
<rect x="-1459" y="-1809" width="1920" height="8124" fill="white"/>
<g id="Frame 276">
<g id="Frame 275">
<g id="Frame 274">
<g id="Frame 273">
<g id="Frame 272">
<g id="Frame 270">
<g id="Frame 235">
<g id="Frame 228">
<g id="Rectangle 9" filter="url(#filter0_d_0_1)">
<rect x="-171.129" y="-60.5239" width="503.129" height="659.164" rx="12" fill="white"/>
</g>
<g id="Frame 227">
<g id="gg:if-design">
<g id="carbon:flow">
<path id="Vector" d="M151.875 124.538V95.6253C151.875 92.6416 150.69 89.7801 148.58 87.6703C146.47 85.5605 143.609 84.3753 140.625 84.3753H95.6251V55.4628C100.928 54.0937 105.549 50.8377 108.622 46.3052C111.696 41.7727 113.011 36.2749 112.321 30.8421C111.631 25.4094 108.983 20.4149 104.874 16.7947C100.765 13.1745 95.4764 11.1772 90.0001 11.1772C84.5237 11.1772 79.2353 13.1745 75.1262 16.7947C71.0171 20.4149 68.3694 25.4094 67.6794 30.8421C66.9893 36.2749 68.3043 41.7727 71.3779 46.3052C74.4515 50.8377 79.0726 54.0937 84.3751 55.4628V84.3753H39.3751C36.3914 84.3753 33.5299 85.5605 31.4201 87.6703C29.3103 89.7801 28.1251 92.6416 28.1251 95.6253V124.538C22.8226 125.907 18.2015 129.163 15.1279 133.695C12.0544 138.228 10.7393 143.726 11.4294 149.158C12.1194 154.591 14.7671 159.586 18.8762 163.206C22.9853 166.826 28.2737 168.823 33.7501 168.823C39.2264 168.823 44.5148 166.826 48.6239 163.206C52.733 159.586 55.3807 154.591 56.0707 149.158C56.7608 143.726 55.4458 138.228 52.3722 133.695C49.2986 129.163 44.6775 125.907 39.3751 124.538V95.6253H140.625V124.538C135.323 125.907 130.701 129.163 127.628 133.695C124.554 138.228 123.239 143.726 123.929 149.158C124.619 154.591 127.267 159.586 131.376 163.206C135.485 166.826 140.774 168.823 146.25 168.823C151.726 168.823 157.015 166.826 161.124 163.206C165.233 159.586 167.881 154.591 168.571 149.158C169.261 143.726 167.946 138.228 164.872 133.695C161.799 129.163 157.178 125.907 151.875 124.538ZM45.0001 146.25C45.0001 148.475 44.3403 150.65 43.1041 152.5C41.8679 154.351 40.1109 155.792 38.0552 156.644C35.9996 157.495 33.7376 157.718 31.5553 157.284C29.373 156.85 27.3684 155.779 25.7951 154.205C24.2218 152.632 23.1503 150.627 22.7162 148.445C22.2821 146.263 22.5049 144.001 23.3564 141.945C24.2079 139.889 25.6498 138.132 27.4999 136.896C29.3499 135.66 31.525 135 33.7501 135C36.7337 135 39.5952 136.186 41.705 138.295C43.8148 140.405 45.0001 143.267 45.0001 146.25ZM78.7501 33.7503C78.7501 31.5252 79.4099 29.3502 80.646 27.5001C81.8822 25.6501 83.6392 24.2081 85.6949 23.3566C87.7505 22.5051 90.0125 22.2824 92.1948 22.7164C94.3771 23.1505 96.3817 24.222 97.955 25.7953C99.5283 27.3687 100.6 29.3732 101.034 31.5555C101.468 33.7378 101.245 35.9998 100.394 38.0555C99.5422 40.1111 98.1003 41.8681 96.2502 43.1043C94.4002 44.3405 92.2251 45.0003 90.0001 45.0003C87.0164 45.0003 84.1549 43.815 82.0451 41.7052C79.9353 39.5954 78.7501 36.734 78.7501 33.7503ZM146.25 157.5C144.025 157.5 141.85 156.84 140 155.604C138.15 154.368 136.708 152.611 135.856 150.555C135.005 148.5 134.782 146.238 135.216 144.056C135.65 141.873 136.722 139.869 138.295 138.295C139.868 136.722 141.873 135.651 144.055 135.216C146.238 134.782 148.5 135.005 150.555 135.857C152.611 136.708 154.368 138.15 155.604 140C156.84 141.85 157.5 144.025 157.5 146.25C157.5 149.234 156.315 152.095 154.205 154.205C152.095 156.315 149.234 157.5 146.25 157.5Z" fill="#0F795B"/>
</g>
</g>
</g>
</g>
</g>
</g>
</g>
</g>
</g>
</g>
</g>
</g>
</g>
</g>
<defs>
<filter id="filter0_d_0_1" x="-246.129" y="-130.524" width="663.129" height="819.164" filterUnits="userSpaceOnUse" color-interpolation-filters="sRGB">
<feFlood flood-opacity="0" result="BackgroundImageFix"/>
<feColorMatrix in="SourceAlpha" type="matrix" values="0 0 0 0 0 0 0 0 0 0 0 0 0 0 0 0 0 0 127 0" result="hardAlpha"/>
<feOffset dx="5" dy="10"/>
<feGaussianBlur stdDeviation="40"/>
<feComposite in2="hardAlpha" operator="out"/>
<feColorMatrix type="matrix" values="0 0 0 0 0.0588235 0 0 0 0 0.47451 0 0 0 0 0.356863 0 0 0 0.05 0"/>
<feBlend mode="normal" in2="BackgroundImageFix" result="effect1_dropShadow_0_1"/>
<feBlend mode="normal" in="SourceGraphic" in2="effect1_dropShadow_0_1" result="shape"/>
</filter>
<clipPath id="clip0_0_1">
<rect x="-1459" y="-1809" width="1920" height="8124" fill="white"/>
</clipPath>
</defs>
</svg>
