<svg width="152" height="151" viewBox="0 0 152 151" fill="none" xmlns="http://www.w3.org/2000/svg">
<g clip-path="url(#clip0_99_12)">
<path d="M123.309 80.2188C126.553 80.2188 129.601 80.8332 132.452 82.062C135.303 83.2909 137.809 84.9621 139.972 87.0757C142.135 89.1893 143.831 91.6961 145.06 94.5962C146.288 97.4963 146.903 100.568 146.903 103.812C146.903 106.368 146.51 108.851 145.723 111.259C144.937 113.668 143.757 115.904 142.184 117.969V149.23L123.309 139.793L104.434 149.23V117.969C102.91 115.904 101.755 113.668 100.969 111.259C100.182 108.851 99.7645 106.368 99.7153 103.812C99.7153 100.568 100.33 97.5208 101.559 94.6699C102.787 91.819 104.459 89.3122 106.572 87.1494C108.686 84.9867 111.193 83.2909 114.093 82.062C116.993 80.8332 120.065 80.2188 123.309 80.2188ZM123.309 89.6562C121.343 89.6562 119.5 90.0249 117.779 90.7622C116.059 91.4995 114.56 92.5072 113.282 93.7852C112.004 95.0631 110.996 96.5623 110.259 98.2827C109.521 100.003 109.153 101.846 109.153 103.812C109.153 105.779 109.521 107.622 110.259 109.342C110.996 111.063 112.004 112.562 113.282 113.84C114.56 115.118 116.059 116.125 117.779 116.863C119.5 117.6 121.343 117.969 123.309 117.969C125.275 117.969 127.118 117.6 128.839 116.863C130.559 116.125 132.058 115.118 133.336 113.84C134.614 112.562 135.622 111.063 136.359 109.342C137.097 107.622 137.465 105.779 137.465 103.812C137.465 101.846 137.097 100.003 136.359 98.2827C135.622 96.5623 134.614 95.0631 133.336 93.7852C132.058 92.5072 130.559 91.4995 128.839 90.7622C127.118 90.0249 125.275 89.6562 123.309 89.6562ZM132.747 133.895V125.416C129.797 126.743 126.652 127.406 123.309 127.406C119.967 127.406 116.821 126.743 113.872 125.416V133.895L123.309 129.176L132.747 133.895ZM123.309 37.75C120.704 37.75 118.271 38.2415 116.01 39.2246C113.749 40.2077 111.733 41.5594 109.964 43.2798C108.194 45.0002 106.843 46.9909 105.909 49.252C104.975 51.513 104.483 53.9707 104.434 56.625C104.434 61.1471 103.426 65.3989 101.411 69.3804C99.3958 73.3618 96.5449 76.7288 92.8584 79.4814C93.7923 79.9238 94.6771 80.4154 95.5127 80.9561C96.3483 81.4967 97.2085 82.062 98.0933 82.6519L92.5635 90.3198C90.1549 88.5994 87.5498 87.2723 84.748 86.3384C81.9463 85.4045 79.0708 84.9375 76.1216 84.9375C72.1893 84.9375 68.5273 85.6748 65.1357 87.1494C61.7441 88.624 58.7458 90.6393 56.1406 93.1953C53.5355 95.7513 51.4956 98.7743 50.021 102.264C48.5464 105.754 47.8091 109.416 47.8091 113.25H38.3716C38.3716 109.662 38.8631 106.196 39.8462 102.854C40.8293 99.5116 42.2301 96.3657 44.0488 93.4165C45.8675 90.4673 48.0549 87.813 50.6108 85.4536C53.1668 83.0942 56.0669 81.0789 59.311 79.4077C55.6737 76.7043 52.8473 73.3618 50.832 69.3804C48.8167 65.3989 47.8091 61.1471 47.8091 56.625C47.8091 54.0199 47.3175 51.5868 46.3345 49.3257C45.3514 47.0646 43.9997 45.0493 42.2793 43.2798C40.5589 41.5103 38.5682 40.1585 36.3071 39.2246C34.0461 38.2907 31.5884 37.7992 28.9341 37.75C26.3289 37.75 23.8958 38.2415 21.6348 39.2246C19.3737 40.2077 17.3584 41.5594 15.5889 43.2798C13.8193 45.0002 12.4676 46.9909 11.5337 49.252C10.5998 51.513 10.1082 53.9707 10.0591 56.625H0.621582C0.621582 54.069 0.965658 51.5868 1.65381 49.1782C2.34196 46.7697 3.30046 44.4841 4.5293 42.3213C5.75814 40.1585 7.2819 38.1924 9.10059 36.4229C10.9193 34.6533 12.9591 33.1296 15.2202 31.8516C13.5981 30.1312 12.3447 28.1405 11.46 25.8794C10.5752 23.6183 10.1082 21.2835 10.0591 18.875C10.0591 16.2699 10.5506 13.8368 11.5337 11.5757C12.5168 9.31462 13.8685 7.29932 15.5889 5.52979C17.3092 3.76025 19.3 2.40853 21.561 1.47461C23.8221 0.54069 26.2798 0.0491536 28.9341 0C31.5392 0 33.9723 0.491536 36.2334 1.47461C38.4945 2.45768 40.5098 3.80941 42.2793 5.52979C44.0488 7.25016 45.4006 9.24089 46.3345 11.502C47.2684 13.763 47.7599 16.2207 47.8091 18.875C47.8091 21.2835 47.3667 23.6183 46.4819 25.8794C45.5972 28.1405 44.3192 30.1312 42.6479 31.8516C46.6785 34.0635 49.9718 37.111 52.5278 40.9941C53.855 39.028 55.3787 37.2585 57.0991 35.6855C58.8195 34.1126 60.6873 32.7855 62.7026 31.7041C64.7179 30.6227 66.8561 29.7871 69.1172 29.1973C71.3783 28.6074 73.7131 28.3125 76.1216 28.3125C78.481 28.3125 80.7912 28.6074 83.0522 29.1973C85.3133 29.7871 87.4515 30.6227 89.4668 31.7041C91.4821 32.7855 93.3745 34.1126 95.144 35.6855C96.9136 37.2585 98.4373 39.028 99.7153 40.9941C102.271 37.111 105.565 34.0635 109.595 31.8516C107.973 30.1312 106.72 28.1405 105.835 25.8794C104.95 23.6183 104.483 21.2835 104.434 18.875C104.434 16.2699 104.926 13.8368 105.909 11.5757C106.892 9.31462 108.243 7.29932 109.964 5.52979C111.684 3.76025 113.675 2.40853 115.936 1.47461C118.197 0.54069 120.655 0.0491536 123.309 0C125.914 0 128.347 0.491536 130.608 1.47461C132.869 2.45768 134.885 3.80941 136.654 5.52979C138.424 7.25016 139.776 9.24089 140.709 11.502C141.643 13.763 142.135 16.2207 142.184 18.875C142.184 21.2835 141.742 23.6183 140.857 25.8794C139.972 28.1405 138.694 30.1312 137.023 31.8516C139.284 33.1296 141.299 34.6533 143.069 36.4229C144.838 38.1924 146.362 40.134 147.64 42.2476C148.918 44.3612 149.901 46.6468 150.589 49.1045C151.278 51.5622 151.622 54.069 151.622 56.625H142.184C142.184 54.0199 141.693 51.5868 140.709 49.3257C139.726 47.0646 138.375 45.0493 136.654 43.2798C134.934 41.5103 132.943 40.1585 130.682 39.2246C128.421 38.2907 125.963 37.7992 123.309 37.75ZM113.872 18.875C113.872 20.2021 114.117 21.431 114.609 22.5615C115.1 23.6921 115.764 24.6751 116.6 25.5107C117.435 26.3464 118.443 27.0345 119.623 27.5752C120.802 28.1159 122.031 28.3617 123.309 28.3125C124.636 28.3125 125.865 28.0667 126.996 27.5752C128.126 27.0837 129.109 26.4201 129.945 25.5845C130.78 24.7489 131.469 23.7412 132.009 22.5615C132.55 21.3818 132.796 20.153 132.747 18.875C132.747 17.5479 132.501 16.319 132.009 15.1885C131.518 14.0579 130.854 13.0749 130.019 12.2393C129.183 11.4036 128.175 10.7155 126.996 10.1748C125.816 9.63411 124.587 9.38835 123.309 9.4375C121.982 9.4375 120.753 9.68327 119.623 10.1748C118.492 10.6663 117.509 11.3299 116.673 12.1655C115.838 13.0011 115.15 14.0088 114.609 15.1885C114.068 16.3682 113.822 17.597 113.872 18.875ZM19.4966 18.875C19.4966 20.2021 19.7423 21.431 20.2339 22.5615C20.7254 23.6921 21.389 24.6751 22.2246 25.5107C23.0602 26.3464 24.0679 27.0345 25.2476 27.5752C26.4272 28.1159 27.6561 28.3617 28.9341 28.3125C30.2612 28.3125 31.4901 28.0667 32.6206 27.5752C33.7511 27.0837 34.7342 26.4201 35.5698 25.5845C36.4054 24.7489 37.0936 23.7412 37.6343 22.5615C38.175 21.3818 38.4207 20.153 38.3716 18.875C38.3716 17.5479 38.1258 16.319 37.6343 15.1885C37.1427 14.0579 36.4792 13.0749 35.6436 12.2393C34.8079 11.4036 33.8003 10.7155 32.6206 10.1748C31.4409 9.63411 30.2121 9.38835 28.9341 9.4375C27.6069 9.4375 26.3781 9.68327 25.2476 10.1748C24.117 10.6663 23.134 11.3299 22.2983 12.1655C21.4627 13.0011 20.7746 14.0088 20.2339 15.1885C19.6932 16.3682 19.4474 17.597 19.4966 18.875ZM57.2466 56.625C57.2466 59.2301 57.7381 61.6632 58.7212 63.9243C59.7043 66.1854 61.056 68.2007 62.7764 69.9702C64.4967 71.7397 66.4875 73.0915 68.7485 74.0254C71.0096 74.9593 73.4673 75.4508 76.1216 75.5C78.7267 75.5 81.1598 75.0085 83.4209 74.0254C85.682 73.0423 87.6973 71.6906 89.4668 69.9702C91.2363 68.2498 92.5881 66.2591 93.522 63.998C94.4559 61.737 94.9474 59.2793 94.9966 56.625C94.9966 54.0199 94.505 51.5868 93.522 49.3257C92.5389 47.0646 91.1872 45.0493 89.4668 43.2798C87.7464 41.5103 85.7557 40.1585 83.4946 39.2246C81.2336 38.2907 78.7759 37.7992 76.1216 37.75C73.5164 37.75 71.0833 38.2415 68.8223 39.2246C66.5612 40.2077 64.5459 41.5594 62.7764 43.2798C61.0068 45.0002 59.6551 46.9909 58.7212 49.252C57.7873 51.513 57.2957 53.9707 57.2466 56.625Z" fill="#0F795B"/>
</g>
<defs>
<clipPath id="clip0_99_12">
<rect width="151" height="151" fill="white" transform="translate(0.621582)"/>
</clipPath>
</defs>
</svg>
